<mxfile host="65bd71144e" modified="2021-03-11T08:48:42.294Z" agent="5.0 (Windows NT 10.0; Win64; x64) AppleWebKit/537.36 (KHTML, like Gecko) Code/1.54.1 Chrome/87.0.4280.141 Electron/11.3.0 Safari/537.36" etag="zwiFeZuLPcSb6XOOou5Y" version="14.2.4" type="embed">
    <diagram id="ZkZC_mfCm8Kq-MY_rXx1" name="Page-1">
        <mxGraphModel dx="1009" dy="479" grid="1" gridSize="10" guides="1" tooltips="1" connect="1" arrows="1" fold="1" page="1" pageScale="1" pageWidth="850" pageHeight="1100" math="0" shadow="0">
            <root>
                <mxCell id="0"/>
                <mxCell id="1" parent="0"/>
                <mxCell id="CV7fx-YJcgmJOG9K6h-E-1" value="login/register" style="whiteSpace=wrap;html=1;fontColor=#000000;fillColor=#FFFFFF;" parent="1" vertex="1">
                    <mxGeometry x="350" y="290" width="80" height="20" as="geometry"/>
                </mxCell>
                <mxCell id="CV7fx-YJcgmJOG9K6h-E-3" value="" style="endArrow=classic;html=1;exitX=0.5;exitY=1;exitDx=0;exitDy=0;entryX=0.5;entryY=0;entryDx=0;entryDy=0;" parent="1" source="CV7fx-YJcgmJOG9K6h-E-1" target="CV7fx-YJcgmJOG9K6h-E-4" edge="1">
                    <mxGeometry width="50" height="50" relative="1" as="geometry">
                        <mxPoint x="290" y="550" as="sourcePoint"/>
                        <mxPoint x="390" y="400" as="targetPoint"/>
                    </mxGeometry>
                </mxCell>
                <mxCell id="CV7fx-YJcgmJOG9K6h-E-12" style="edgeStyle=orthogonalEdgeStyle;rounded=0;orthogonalLoop=1;jettySize=auto;html=1;exitX=0.5;exitY=1;exitDx=0;exitDy=0;entryX=0.5;entryY=0;entryDx=0;entryDy=0;" parent="1" source="CV7fx-YJcgmJOG9K6h-E-4" target="CV7fx-YJcgmJOG9K6h-E-10" edge="1">
                    <mxGeometry relative="1" as="geometry"/>
                </mxCell>
                <mxCell id="CV7fx-YJcgmJOG9K6h-E-13" style="edgeStyle=orthogonalEdgeStyle;rounded=0;orthogonalLoop=1;jettySize=auto;html=1;exitX=0.5;exitY=1;exitDx=0;exitDy=0;entryX=0.5;entryY=0;entryDx=0;entryDy=0;" parent="1" source="CV7fx-YJcgmJOG9K6h-E-4" target="CV7fx-YJcgmJOG9K6h-E-11" edge="1">
                    <mxGeometry relative="1" as="geometry"/>
                </mxCell>
                <mxCell id="CV7fx-YJcgmJOG9K6h-E-36" style="edgeStyle=orthogonalEdgeStyle;rounded=0;orthogonalLoop=1;jettySize=auto;html=1;exitX=0;exitY=0.5;exitDx=0;exitDy=0;entryX=1;entryY=0.5;entryDx=0;entryDy=0;" parent="1" source="CV7fx-YJcgmJOG9K6h-E-4" target="CV7fx-YJcgmJOG9K6h-E-35" edge="1">
                    <mxGeometry relative="1" as="geometry"/>
                </mxCell>
                <mxCell id="CV7fx-YJcgmJOG9K6h-E-4" value="Dashboard" style="whiteSpace=wrap;html=1;fontColor=#000000;fillColor=#FFFFFF;" parent="1" vertex="1">
                    <mxGeometry x="330" y="360" width="120" height="50" as="geometry"/>
                </mxCell>
                <mxCell id="CV7fx-YJcgmJOG9K6h-E-38" style="edgeStyle=orthogonalEdgeStyle;rounded=0;orthogonalLoop=1;jettySize=auto;html=1;exitX=0.5;exitY=1;exitDx=0;exitDy=0;" parent="1" source="CV7fx-YJcgmJOG9K6h-E-10" target="CV7fx-YJcgmJOG9K6h-E-34" edge="1">
                    <mxGeometry relative="1" as="geometry"/>
                </mxCell>
                <mxCell id="CV7fx-YJcgmJOG9K6h-E-10" value="Request" style="ellipse;whiteSpace=wrap;html=1;fillColor=#FFFFFF;fontColor=#000000;" parent="1" vertex="1">
                    <mxGeometry x="300" y="460" width="60" height="40" as="geometry"/>
                </mxCell>
                <mxCell id="CV7fx-YJcgmJOG9K6h-E-39" style="edgeStyle=orthogonalEdgeStyle;rounded=0;orthogonalLoop=1;jettySize=auto;html=1;exitX=0.5;exitY=1;exitDx=0;exitDy=0;" parent="1" source="CV7fx-YJcgmJOG9K6h-E-11" target="CV7fx-YJcgmJOG9K6h-E-34" edge="1">
                    <mxGeometry relative="1" as="geometry"/>
                </mxCell>
                <mxCell id="CV7fx-YJcgmJOG9K6h-E-11" value="Offer" style="ellipse;whiteSpace=wrap;html=1;fontColor=#000000;fillColor=#FFFFFF;" parent="1" vertex="1">
                    <mxGeometry x="420" y="460" width="60" height="40" as="geometry"/>
                </mxCell>
                <mxCell id="3" style="edgeStyle=orthogonalEdgeStyle;rounded=0;orthogonalLoop=1;jettySize=auto;html=1;entryX=1;entryY=0.25;entryDx=0;entryDy=0;fontColor=#ffffff;" edge="1" parent="1" source="CV7fx-YJcgmJOG9K6h-E-15" target="CV7fx-YJcgmJOG9K6h-E-4">
                    <mxGeometry relative="1" as="geometry"/>
                </mxCell>
                <mxCell id="CV7fx-YJcgmJOG9K6h-E-15" value="&lt;p style=&quot;line-height: 100%&quot;&gt;&lt;/p&gt;&lt;h1&gt;&lt;font style=&quot;font-size: 16px&quot;&gt;Dashboard&lt;/font&gt;&lt;/h1&gt;&lt;p&gt;&lt;/p&gt;&lt;blockquote style=&quot;margin: 0 0 0 40px ; border: none ; padding: 0px&quot;&gt;&lt;/blockquote&gt;&lt;span&gt;User details&lt;/span&gt;&lt;br&gt;&lt;span&gt;History&lt;br&gt;&lt;/span&gt;&lt;span&gt;Reviews&lt;br&gt;&lt;/span&gt;request/offer button&lt;br&gt;modify details&lt;br&gt;delete user&lt;br&gt;&lt;p&gt;&lt;/p&gt;" style="text;html=1;spacing=5;spacingTop=-20;whiteSpace=wrap;overflow=hidden;rounded=1;glass=0;shadow=0;sketch=1;arcSize=9;fontColor=#ffffff;strokeColor=#CCFFCC;" parent="1" vertex="1">
                    <mxGeometry x="550" y="270" width="180" height="150" as="geometry"/>
                </mxCell>
                <mxCell id="CV7fx-YJcgmJOG9K6h-E-41" style="edgeStyle=orthogonalEdgeStyle;rounded=0;orthogonalLoop=1;jettySize=auto;html=1;exitX=0;exitY=0.5;exitDx=0;exitDy=0;" parent="1" source="CV7fx-YJcgmJOG9K6h-E-34" target="CV7fx-YJcgmJOG9K6h-E-40" edge="1">
                    <mxGeometry relative="1" as="geometry">
                        <Array as="points">
                            <mxPoint x="253" y="573"/>
                            <mxPoint x="253" y="535"/>
                        </Array>
                    </mxGeometry>
                </mxCell>
                <mxCell id="CV7fx-YJcgmJOG9K6h-E-42" style="edgeStyle=orthogonalEdgeStyle;rounded=0;orthogonalLoop=1;jettySize=auto;html=1;exitX=0.5;exitY=1;exitDx=0;exitDy=0;" parent="1" source="CV7fx-YJcgmJOG9K6h-E-34" target="CV7fx-YJcgmJOG9K6h-E-43" edge="1">
                    <mxGeometry relative="1" as="geometry">
                        <mxPoint x="387.48275862068976" y="640" as="targetPoint"/>
                    </mxGeometry>
                </mxCell>
                <mxCell id="CV7fx-YJcgmJOG9K6h-E-34" value="form page" style="shape=process;whiteSpace=wrap;html=1;backgroundOutline=1;fontColor=#000000;fillColor=#FFFFFF;" parent="1" vertex="1">
                    <mxGeometry x="336.25" y="552.5" width="102.5" height="40" as="geometry"/>
                </mxCell>
                <mxCell id="CV7fx-YJcgmJOG9K6h-E-37" style="edgeStyle=orthogonalEdgeStyle;rounded=0;orthogonalLoop=1;jettySize=auto;html=1;exitX=0.5;exitY=0;exitDx=0;exitDy=0;entryX=0;entryY=0.5;entryDx=0;entryDy=0;" parent="1" source="CV7fx-YJcgmJOG9K6h-E-35" target="CV7fx-YJcgmJOG9K6h-E-1" edge="1">
                    <mxGeometry relative="1" as="geometry"/>
                </mxCell>
                <mxCell id="CV7fx-YJcgmJOG9K6h-E-35" value="logout" style="whiteSpace=wrap;html=1;fontColor=#000000;fillColor=#FFFFFF;" parent="1" vertex="1">
                    <mxGeometry x="230" y="375" width="80" height="20" as="geometry"/>
                </mxCell>
                <mxCell id="CV7fx-YJcgmJOG9K6h-E-40" value="&lt;p style=&quot;line-height: 100%&quot;&gt;&lt;/p&gt;&lt;h1&gt;&lt;/h1&gt;- Search location(through map)&lt;br&gt;- get route&lt;br&gt;- vehicle type&lt;br&gt;- set seats&lt;br&gt;- set date &amp;amp; time for departure/pickup&lt;br&gt;&lt;br&gt;&lt;br&gt;&lt;p&gt;&lt;/p&gt;" style="text;html=1;spacing=5;spacingTop=-20;whiteSpace=wrap;overflow=hidden;rounded=1;glass=0;shadow=0;sketch=1;arcSize=9;fontColor=#ffffff;fillStyle=auto;strokeColor=#CCFFCC;" parent="1" vertex="1">
                    <mxGeometry x="30" y="470" width="140" height="130" as="geometry"/>
                </mxCell>
                <mxCell id="CV7fx-YJcgmJOG9K6h-E-44" style="edgeStyle=orthogonalEdgeStyle;rounded=0;orthogonalLoop=1;jettySize=auto;html=1;entryX=1.005;entryY=0.634;entryDx=0;entryDy=0;entryPerimeter=0;" parent="1" source="CV7fx-YJcgmJOG9K6h-E-43" target="CV7fx-YJcgmJOG9K6h-E-4" edge="1">
                    <mxGeometry relative="1" as="geometry">
                        <mxPoint x="520" y="400" as="targetPoint"/>
                        <Array as="points">
                            <mxPoint x="500" y="640"/>
                            <mxPoint x="500" y="392"/>
                        </Array>
                    </mxGeometry>
                </mxCell>
                <mxCell id="4" style="edgeStyle=orthogonalEdgeStyle;rounded=0;orthogonalLoop=1;jettySize=auto;html=1;entryX=0;entryY=0.5;entryDx=0;entryDy=0;fontColor=#000000;" edge="1" parent="1" source="CV7fx-YJcgmJOG9K6h-E-43" target="CV7fx-YJcgmJOG9K6h-E-35">
                    <mxGeometry relative="1" as="geometry"/>
                </mxCell>
                <mxCell id="CV7fx-YJcgmJOG9K6h-E-43" value="cancel" style="whiteSpace=wrap;html=1;fontColor=#000000;fillColor=#FFFFFF;" parent="1" vertex="1">
                    <mxGeometry x="364.97" y="630" width="45.03" height="20" as="geometry"/>
                </mxCell>
            </root>
        </mxGraphModel>
    </diagram>
</mxfile>